<svg xmlns="http://www.w3.org/2000/svg" enable-background="new 0 0 36 36" viewBox="0 0 36 36"><path fill="#EFEFEF" d="M11.532,34.802c6.645-1.919,12.203,0.206,15.405-0.719s9.396-4.708,5.142-19.44S18.155,0.363,14.632,1.38C-1.861,6.143-0.237,38.201,11.532,34.802z"/><rect width="2" height="1" x="6.25" y="2.848" fill="#A4AFC1" transform="rotate(-45.001 7.25 3.348)"/><rect width="2" height="1" x="2.184" y="6.914" fill="#A4AFC1" transform="rotate(-45.001 3.184 7.414)"/><rect width="1" height="2" x="2.684" y="2.172" fill="#A4AFC1" transform="rotate(-44.992 3.183 3.172)"/><path fill="#A4AFC1" d="M31.171,32.053c-0.827,0-1.5-0.673-1.5-1.5s0.673-1.5,1.5-1.5s1.5,0.673,1.5,1.5S31.998,32.053,31.171,32.053z M31.171,30.053c-0.275,0-0.5,0.224-0.5,0.5s0.225,0.5,0.5,0.5s0.5-0.224,0.5-0.5S31.446,30.053,31.171,30.053z"/><path fill="#2FDF84" d="M29.25,9.214c0-1.36-1.104-2.464-2.464-2.464H9.214c-1.36,0-2.464,1.104-2.464,2.464v17.571c0,1.36,1.104,2.464,2.464,2.464h17.571c1.36,0,2.464-1.104,2.464-2.464V9.214z"/><path fill="#00B871" d="M9,26.786V9.214c0-1.36,1.104-2.464,2.464-2.464h-2.25c-1.36,0-2.464,1.104-2.464,2.464v17.571c0,1.36,1.104,2.464,2.464,2.464h2.25C10.104,29.25,9,28.146,9,26.786z"/><path d="M26.786,30H9.214C7.441,30,6,28.558,6,26.786V9.214C6,7.442,7.441,6,9.214,6h17.572C28.559,6,30,7.442,30,9.214v17.571C30,28.558,28.559,30,26.786,30z M9.214,7.5C8.269,7.5,7.5,8.269,7.5,9.214v17.571c0,0.945,0.769,1.714,1.714,1.714h17.572c0.945,0,1.714-0.769,1.714-1.714V9.214c0-0.945-0.769-1.714-1.714-1.714H9.214z"/><path d="M17.954,19c-0.001,0-0.003,0-0.004,0c-0.253-0.001-0.488-0.13-0.626-0.343l-4.204-6.5l1.26-0.814l3.581,5.537l3.663-5.543l1.252,0.827l-4.296,6.5C18.44,18.874,18.206,19,17.954,19z"/><rect width="1.5" height="6" x="17.25" y="18.25"/></svg>